# xmcd CD database file
#
# Track frame offsets:
#	150
#	14192
#	32722
#	54905
#	69452
#	84870
#	101912
#	126205
#	138472
#	158737
#	173167
#	183670
#	197282
#
# Disc length: 2886 seconds
#
# Revision: 0
# Processed by: cddbd v1.5.1PL0 Copyright (c) Steve Scherf et al.
# Submitted via: CDex 1.51
#
DISCID=ad0b440d
DTITLE=Chet Baker - Baby Breeze
DYEAR=1965
DGENRE=Jazz
TTITLE0=Baby breeze
TTITLE1=Born to be blue
TTITLE2=This is the thing
TTITLE3=I wish you love
TTITLE4=Everything depends on you
TTITLE5=One with one
TTITLE6=Pamela's passion
TTITLE7=The touch of your lips
TTITLE8=Comin' down
TTITLE9=You're mine, you
TTITLE10=Sweet Sue
TTITLE11=Taste of honey
TTITLE12=Think beautiful
EXTD=YEAR: 1965
EXTT0=
EXTT1=
EXTT2=
EXTT3=
EXTT4=
EXTT5=
EXTT6=
EXTT7=
EXTT8=
EXTT9=
EXTT10=
EXTT11=
EXTT12=
PLAYORDER=
